<?xml version="1.0" encoding="UTF-8"?>
<svg id="Artwork" xmlns="http://www.w3.org/2000/svg" viewBox="0 0 283.46 216.81">
  <defs>
    <style>
      .cls-1 {
        fill: #00293b;
      }
    </style>
  </defs>
  <path class="cls-1" d="M237.42,78.84c1.3-1.22,4.66-2.52,8.28-4.5,3.63-1.99,9.78-7.54,11.3-7.94,1.52-.4,4.7,3.44,4.1,5.49-.59,2.05-22.33,12.52-23.16,10.72-.59-1.29-1.87-2.51-.53-3.77m-71.67-11.5c1.19-.21,10.8-25.88,9.51-27.62-1.29-1.73-9.2-2.87-10.24-2.51-1.03,.36-5.53,28.19-4.1,29.29,.79,.61,3.64,1.04,4.83,.83m32.24-17.28c-2.49-.72-15.75,21.59-16.16,22.86-.41,1.27,2.34,3.02,3.18,2.58,.84-.44,18.94-19.58,18.35-21.87-.57-2.17-3.86-3.14-5.36-3.57m2.58,41.08c-1.78,1.29,2.72,6.36,3.24,6.81,1.55,1.33,25.84-8.71,26.86-11.38,.3-.78-1.86-4.31-3.11-6.75-1.29-2.52-2.79-5.11-4.17-5.26-1.38-.15-21,15.26-22.82,16.57m28.39-57.12c-1.65,.22-13.57,14.35-13.45,16.43,.12,2.08,1.09,1.89,3.96,4.46,1.83,1.64,4.46-3.47,6.07-4.61,1.6-1.13,7.28-7.94,8.91-9.48,1.64-1.54-3.85-7.02-5.51-6.8m-24.71-17.47c-.96,.71-4.74,8.07-5.89,11.76-1.15,3.7-4.39,5.74-4.01,7.42,.37,1.68,8.53,4.84,9.73,4.66,1.2-.17,13.07-17.1,11.8-17.8-3.19-1.75-10.66-6.76-11.62-6.05m-21.18-8.87c-1.09-.02-8.05,20.03-7.64,21.33,.41,1.31,3.52,1.83,4.96,1.49,1.45-.34,8.63-18.26,8.06-20.7-.29-1.25-4.29-2.1-5.38-2.12m-48.68,27.73c-2.12,.43,1.19,15.88,4.19,28.8,.23,1.01,3.55,1.24,3.35-1.22-.89-11.33,.19-26.07-.5-27.29-.88-1.56-5.26-.66-7.04-.29M125.87,.68c-1.92-.1-3.92,1.07-4.31,1.66-.86,1.28,2.07,11.48,2.95,14.88,.88,3.4,1.08,6.19,1.65,7.84,.71,2.02,8.93,.18,9.64-.36,.85-.65,.23-5.74-.37-10.77-.6-5.03,0-12.68-1.06-13.21-2.01-1-6.65,.07-8.49-.03m-36.94,78.77c4.27,4.37,5.2,1.33,7.77-.78,1.69-1.38-1.36-3.21-2.81-6.2-4.07-6.14-11.02-16.49-14.86-17.02-.9-.13-9.92,6.39-8.53,9.52,.69,1.57,11.88,7.77,18.43,14.47m14.51-36.5c-.5,1.25,10.96,25.58,12.11,25.8,2.09,.39,6.56-1.22,6.94-2.18,.63-1.56-1.62-6.43-3.62-13.56-1.99-7.13-2.25-13.47-4.6-14.15-2.35-.68-9.82,1.56-10.84,4.09m20.33,34.5c-2.73-1.28-11,2.61-10.36,4.16,1.83,4.39,4.87,8.65,8.77,13.31,.86,1.03,5.6-.7,6.29-2.29,.32-.73-.24-1.03-.71-2.63-2.33-7.88-3.07-12.11-4-12.54M106.31,3.09c-.52-.34-6.7,1.38-6.75,1.97-.24,2.55,7.06,23.47,7.15,24.72,.1,1.25,1.58,1.32,4.34,.75,3.99-.82,.8-5.95,.51-7.6-.67-3.8-.35-3.48-1.35-7.6-.17-.69-1.15-3.88-1.4-5.41-.65-4-1.08-5.87-2.51-6.83M62.39,22.94c4.24,7.94,7.92,10.29,15.86,21.2,.93,1.28,3.68-1.5,3.57-2.18-.11-.68-11.98-21.72-13.69-22.42-.33-.13-1.29,.48-1.91,.71-.62,.23-4.56,1.32-3.82,2.69m-22.51,18c-1.83,1.61-11.68,10.63-8.96,12.75,2.72,2.12,23.08,12.87,25.4,11.46,2.32-1.41,3.26-3.03,4.6-4.36,1.72-1.72,3.22-3.92,2.44-5.13-3.21-4.99-15.16-15.09-18.54-18.25-1.11-1.04-3.11,1.92-4.94,3.53m-.79,79.31c.1-.91,.88-1.5-1.34-1.61-.99-.04-29.25-2.34-29.25-2.34-3.77,.99-2.05,6.45-.09,6.38,15.18-.56,30.57-1.49,30.68-2.43m3.75-28.79c1.34,.54,4.59-8.08,3.75-8.44-3.75-1.61-18.25-8.97-27.11-11.34-1.39-.37-2.25,2.56-3.56,4.78-.97,1.64-.79,2.58,.6,4.01,0,0,19.27,8.17,26.32,10.99m35.66,12.11c.87-1.66,1.86-4.51,.23-5.67-8.16-3.36-15.93-8.9-22.36-9.65-1.48-.17-2.61,4.32-3.68,7.37-1.35,3.86-2.17,6.68-1.52,7.06,5.95,3.43,23.88,5.48,24.69,4.98,.81-.51,1.77-2.43,2.64-4.09m28.85,17.06c1.05,.01,3.51-7.42,1.92-8.41-5.93-3.7-8.31-4.3-20.31-8.13-1.81-.58-5.68,9.64-5.91,14.34-.16,3.33,16.42,2.14,24.3,2.21m11.77-.47c.07,1.25,14.39,.78,14.54-.21,.15-.98,.68-1.4-.25-2.57-2.44-3.04-7.78-7.12-9.41-8.04-1.49-.85-5.28,4.08-4.88,10.82M150.37,1.54c.24,1.58-1.06,22.56,.3,22.94,2.51,.7,2.65-.59,2.79-1.13,1.6-6.14,1.15-19.02,1.6-21.38,.21-1.11-4.93-2.01-4.69-.43m.68,73.63c.01,.96-2.03,13.47,.42,14.22,1.63,.5,4.04,.29,5.07,.03,.76-.2,2.09-3.31,2.3-5.09,.55-2.28,1.22-4.46,1.92-7.6,.4-1.79-1.38-1.66-3.88-2.33-2.81-.75-5.84-.94-5.82,.78m3.49,38.44c1.72-1.71,7.68-9.41,7.45-11.72-.13-1.32-2.72-2.17-5.79-2.69-3.07-.53-6.16-.76-6.16,.05,0,4.32-.11,14.76,.5,15.02,1.76,.74,1.67,1.67,4-.66m20.69-14.45c1.59,1.49,4.03,5.98,5.6,8.55,1.39,2.28,13.29-4.1,14.09-6.55,.4-1.23-2.44-6.1-5.81-9.72-2.51-2.7-4.02-6.18-8.61-.11-4.59,6.07-6,6.25-5.27,7.83m66.58,22.81c.52-.46,.08-3.61,.07-5.35,0-1.73-1.5-6.11-1.99-6.41-.49-.29-25.54,5.5-25.76,6.03-.22,.53,.22,4.9,.97,5.36,.76,.45,26.19,.82,26.71,.36m5.59-16.14c.45,3.39,1.13,4.55,1.82,6.03,.69,1.48,26.32-2.91,27.01-3.85,.68-.93-.38-1.66-.2-3.21,.19-1.62-2.98-11.02-4.14-11.78-1.16-.76-13.24,2.27-15.84,3.3-2.59,1.03-9.46,2.19-9.92,3.38-.45,1.19,1.17,5.27,1.28,6.13m-7.83-61.7c-2.34-1.24-12.61,13.63-15.28,16.5-.89,.96,8.75,14.24,10.52,12.91,3.99-3.01,18.62-10.3,17.58-13.49-1.04-3.19-5.79-9.28-8.94-12.22-1.13-1.52-1.53-2.47-3.87-3.7m-57.14-1.61c-1.66,1.81-11.04,25.88-9.88,26.71,1.16,.84,2.88,2.6,4.15,.98,3.73-4.79,8.76-15.02,13.05-20.07,4.29-5.05-5.66-9.43-7.32-7.62m8.33,37.95c1.09,1.19,4.29,5.85,6.15,4.37,.99-.8,4.2-3.07,10.31-6.78,6.35-3.87,10.79-8.66,11.21-9.62,.86-1.93-4.86-10.42-8.73-9.43-3.87,.99-6.86,6.2-9.82,9.92-2.96,3.72-10.99,9.5-9.12,11.55m29.23-53.39c-1.85,.82-10.27,13.72-11.78,15.51-.96,1.14,2.87,2.8,3.66,3,.8,.2,4.03-5.02,5.66-6.33,1.63-1.31,8.62-8.45,7.54-9.38-1.49-1.29-3.24-3.62-5.09-2.79m-34.3,4.2c-1,1.69,2.41,2.83,3.57,3.38,1.88,.89,10.75-18.82,9.96-20.7-.79-1.88-4.87-2.78-5.48-2.15-.9,.91-7.05,17.79-8.05,19.48m-26.89-17.29c-.33,2.04-1.47,10.02-.07,10.82,1.4,.81,9.43,2.72,11.3,2.51,1.64-.19,7.91-18.52,6.6-21.09-.89-1.76-13.06-4.36-14.52-4.14-1.46,.22-1.98,1.12-2.35,2.1-.8,2.14-.55,7.27-.96,9.8m-18.56,9.09c.17,1.31,1.57,1.38,1.7,.83,.3-1.25,.48-23.31,.09-23.65-.4-.34-1.7-.33-2.48,0-.62,.27-.54,13.69,.7,22.82m-55.08,68.59c1.71-.79,3.02-4.7,1.92-5.32-3.94-2.25-19.74-16.44-22.9-15.54-.91,.26-7.17,8.82-4.56,10.87,5.06,3.96,23.93,10.73,25.54,9.99m1.8-41.76c-.99,1.99,16.95,24.27,17.66,24.61,.71,.33,4.32-1.03,4.76-2.19,.43-1.16-11.99-25.82-13.78-26.81-1.78-.98-7.49,2.07-8.65,4.38m34.73-12.3c-1.06,2.15,6.13,24.54,7.34,27.98,.45,1.28,1.91,.32,2.78,0,.87-.32-3.35-29.04-4.4-29.66-1.05-.62-5.18,.56-5.73,1.68M116.32,2.12c-.15-.95-3.07-.27-3.21,.35-.14,.61,5.61,25.66,6.27,25.47,.16-.05,1.23,.69,.91-1.62-.32-2.31-1.23-8.19-1.74-11.28-1.03-6.18-2.15-12.45-2.23-12.92m-33.37,9.05c-1.2,.57-10.02,3.68-9.67,6.18,.18,1.26,1.62,3.18,2.77,4.63,1.64,2.07,4.11,5.52,6.11,8.4,3.36,4.87,5.4,7.38,5.69,7.86,.58,.95,3.62-1.33,6.36-2,3.05-.75,4.25-1.92,5.51-2.15,1.65-.3,1.67-.9,1.64-1.68-.04-.79-5.43-15.46-7.85-23.07-.83-2.61-7.25,.29-10.55,1.84m-25.06,15.21c-1.15-.42-10.47,4.99-9.02,6.65,5.36,6.15,13.35,13.91,19.45,18.66,.91,.7,5.07-2.31,4.56-3.77-1.78-5.16-13.08-20.83-14.99-21.53M25.76,59.2c-1.72,2.72-3.58,4.85-2.92,6.05,.65,1.2,24.91,13.88,26.3,11.47,.91-1.56,3.56-3.41,.67-5.63-8.57-6.56-22.66-14.11-24.05-11.9m16.55,39.89c.08-1.5,.67-2.41-1.02-2.77-6.08-1.29-24.65-10.2-28.45-8.78-1.61,.61-2.89,9.59-4.08,13.73-.78,2.71-1.26,7.46-.72,8.65,.54,1.19,30.11,4.44,31.46,2.46,1.34-1.98,2.73-11.79,2.81-13.29m29.7,22.38c3.13-.41,3.49-6.24,2.35-6.9-3.82-2.24-24.13-5.16-24.82-3.28-.69,1.87-2.76,9.56-1.29,9.76,2.24,.3,2.21,.21,23.75,.43m39.81-15.68c1.3,.82,4.2-3.76,5.13-4.68,1.26-1.26-1-4.57-4.37-7.55-4.55-4.02-6.62-7.73-8.14-7.94-2.62-.35-5.95,3.97-10.23,9.63-2.16,2.86,2.29,3.3,8.05,6.25,2.57,1.32,7.42,2.93,9.56,4.29m29.64,9.23c1.54-.61,2.36-16.07,.45-15.99-6.34,.27-8.69,1.68-10.17,3.16-1.18,1.18,6.83,13.21,8.22,13.21,1.26,0,.92-.14,1.49-.37m-.48-25.85c1.65-4.03,1.74-15.38-.02-15.65-4.53-.71-8.93,0-8.23,3.36,.41,2.45,1.35,9.35,2.69,12.36,.66,1.12,5.14,.95,5.56-.07m15.46-53.26c-1.93-.72-6.54-.74-6.53,.12,.08,7.97-.08,29.5,1.36,29.5,1.44,0,2.44,.49,3.09,.3s4-29.2,2.08-29.92m4.82,83.93c1.61,.39,12.62,1.33,12.91,.69,.5-1.11-.26-3.68-1.24-6.7-.98-3.02-2.21-5.97-3.11-6.44-1.8-.94-5.76,7.08-10.21,10.92-.28,.24-.51,1.01,1.64,1.54m7.59-26.03c1.51,.59,6.44-5.8,8.6-8.53,3.24-4.1-8.19-8.35-8.93-6.99-1.02,1.88-3.58,7.14-5.23,10.82-.99,2.22,4.05,4.11,5.55,4.7m34.46,28.15c2.02,0,2.31-1.99,1.8-3.06-4.32-9-3.83-9.85-6.69-9.85-1.76,0-8.65,3.08-13.27,4.62-2.38,.79-.34,6.38,.48,7.35,.82,.96,16.29,.94,17.67,.94m5.81-16.83c-1.06,1.51,1.34,4.64,2.38,4.96,1.04,.33,23.12-6.25,24.41-6.75,1.24-.48,.71-2.09,.8-2.98,.07-.88-1.19-4.86-2.68-5.36-.72-.24-23.84,8.61-24.9,10.12m45.47-15.89c-.95,.37,11.78-4.02,13.21-4.28,1.43-.26,.06-4.03-.77-4.81-.83-.78-1.06-2.88-2.2-2.11-1.11,.75-9.7,4.6-10.76,5.33-1.06,.73-8.54,3.9-11.29,5.37-1.56,.83-.92,2.43,.18,3.36,1.1,.94,3.36-.44,5.42-.9,2.07-.46,7.15-2.33,6.2-1.96m-3.11,32.41c.6,.52,26.18,.46,26.73-.68,.55-1.14,.13-2.11,.04-3.27-.09-1.16-.06-2.76-1-3.13-.94-.37-24.94,4.14-25.74,4.99-.8,.86-.63,1.56-.03,2.08M0,195.54c1.86-.08,3.8-.15,5.75-.15s4.03,.07,6.12,.15v-1.05c-2.69,0-4.03-1.19-4.03-3.44,0-.82,.22-1.79,.6-2.99l3.58-10.83h14.18l3.66,10.98c.37,1.19,.74,2.16,.74,3.13,0,2.01-1.27,2.99-3.88,3.13v1.05c2.61-.08,5.08-.15,7.62-.15s4.93,.07,7.39,.15v-1.05h-.45c-2.69,0-4.4-1.94-5.75-5.97l-12.32-36.88h-4.33l-12.24,35.76c-1.64,4.78-3.36,7.02-6.64,7.09v1.05Zm12.76-20.54l6.42-18.89,6.27,18.89H12.76Zm29.49-25.09c3.29,0,4.33,1.79,4.33,6.12v33.45c0,3.73-1.2,4.93-4.85,5v1.05c2.39-.08,4.93-.15,7.24-.15s4.7,.08,6.94,.15v-1.05c-3.44-.15-4.26-1.42-4.26-5v-41.51c-3.13,.37-6.42,.75-9.78,.9v1.04h.37m18.96,45.69c2.54,.08,5.31,.83,8.14,.83,11.35,0,18.45-6.72,18.45-14.93s-5.08-13.14-12.4-13.14c-3.21,0-6.42,1.2-9.18,3.66v-24.04c-3.21,.45-6.35,.75-9.56,.9v1.04h.37c3.28,0,4.18,1.79,4.18,6.12v39.57Zm5.01-21.95c2.31-2.24,4.55-3.28,7.02-3.28,5.08,0,8.89,4.63,8.89,12.32s-4.63,12.4-11.12,12.4c-4.04,0-4.78-2.32-4.78-6.5v-14.93Zm40.47-3.36c3.28,0,4.18,1.79,4.18,6.12v12.69c-2.24,2.76-5.08,4.18-7.69,4.18-4.03,0-5.67-2.91-5.67-8.96v-15.98c-3.21,.52-6.34,.74-9.56,.9v1.04h.37c3.29,0,4.18,1.79,4.18,6.12v7.47c0,8.14,2.61,12.1,8.44,12.1,3.44,0,6.87-1.64,9.93-5.01v5.08c3.21-.45,6.57-.37,9.78-.52v-1.05h-.37c-3.28,0-4.33-2.09-4.33-6.42v-19.71c-3.21,.45-6.42,.74-9.63,.9v1.04h.38m23.74-1.86c-3.14,.37-6.42,.67-9.78,.82v1.04h.37c3.29,0,4.33,1.79,4.33,6.12v13.07c0,3.73-1.04,4.92-4.7,5v1.05c2.31-.08,4.7-.15,7.09-.15s4.93,.07,7.39,.15v-1.05c-3.81,0-4.7-1.2-4.7-5v-13.74c1.87-2.02,3.88-2.99,5.82-2.99,1.49,0,3.28,.6,5.45,1.5l2.17-4.77c-1.35-.75-2.61-1.12-3.81-1.12-2.54,0-5.6,1.94-9.63,5.6v-5.52Zm18.88,48.37c4.33,0,6.58-3.51,9.11-10.67l11.12-31.2c1.12-3.06,2.91-4.63,5.52-4.63h.15v-1.04c-1.65,0-3.36,.08-5.01,.08s-3.35-.08-5.08-.08v1.04c2.17,0,3.21,.9,3.21,2.77,0,.82-.15,1.64-.52,2.61l-5,14.1-6.65-14.78c-.45-.89-.59-1.87-.59-2.54,0-1.27,.83-2.02,2.54-2.17v-1.04c-2.32,.08-4.56,.08-6.65,.08s-4.25,0-6.27-.08v1.04c2.76,.08,4.33,1.57,5.67,4.56l9.63,21.43-3.43,9.56c-1.57,4.26-3.21,6.2-6.72,6.2-.59,0-1.57-.15-2.84-.45l-1.27,4.63c.97,.37,2.01,.59,3.06,.59m50.4-20.22c8.37,0,14.79-3.88,18.07-10.9l-1.12-.53c-3.43,6.05-8.29,9.18-14.34,9.18-10.08,0-17.84-8.58-17.84-21.65,0-12.09,6.64-19.56,16.57-19.56,7.69,0,12.77,4.1,14.41,11.72h.89v-13.44h-.89c-.45,1.5-1.19,2.24-2.16,2.24-2.17,0-6.05-2.02-11.94-2.02-8.07,0-14.64,3.36-18.89,9.48-2.77,4.03-4.18,8.66-4.18,13.82,0,6.72,2.39,12.32,6.94,16.35,3.88,3.52,8.88,5.31,14.48,5.31m30.32-28.22c-3.14,.45-6.35,.74-9.71,.9v1.04h.37c3.29,0,4.18,1.79,4.18,6.12v13.07c0,3.73-.89,4.92-4.55,5v1.05c2.39-.08,4.78-.15,7.1-.15s4.62,.07,6.86,.15v-1.05c-3.44-.15-4.25-1.42-4.25-5v-21.13Zm-3.36-14.11c-1.8,0-3.36,1.42-3.36,3.36,0,1.71,1.49,3.36,3.36,3.36s3.43-1.57,3.43-3.36c0-1.94-1.56-3.36-3.43-3.36m17.38,5.67h-1.34c0,7.63-5.12,9.93-8.51,9.93v1.12h4.85v14.41c0,7.39,2.17,11.05,7.32,11.05,2.76,0,5.75-1.34,8.21-3.88l-.53-.67c-1.79,1.12-3.43,1.64-4.93,1.64-3.96,0-5.08-2.84-5.08-8.82v-13.73h8.88v-2.02h-8.88v-9.03Zm13.51,56.89c4.33,0,6.57-3.51,9.11-10.67l11.13-31.2c1.12-3.06,2.91-4.63,5.52-4.63h.15v-1.04c-1.64,0-3.36,.08-5.01,.08s-3.35-.08-5.07-.08v1.04c2.16,0,3.2,.9,3.2,2.77,0,.82-.14,1.64-.52,2.61l-5,14.1-6.64-14.78c-.45-.89-.6-1.87-.6-2.54,0-1.27,.82-2.02,2.54-2.17v-1.04c-2.31,.08-4.55,.08-6.64,.08s-4.26,0-6.28-.08v1.04c2.77,.08,4.33,1.57,5.67,4.56l9.64,21.43-3.44,9.56c-1.57,4.26-3.21,6.2-6.72,6.2-.6,0-1.57-.15-2.83-.45l-1.28,4.63c.97,.37,2.02,.59,3.06,.59"/>
</svg>
